# xmcd
#
# Track frame offsets:
#	150
#	13840
#	25915
#	39315
#	53295
#	65170
#	77272
#	89375
#	99962
#	113347
#	124110
#	135292
#
# Disc length: 1976 seconds
#
# Revision: 0
# Processed by: cddbd v1.4PL0 Copyright (c) Steve Scherf et al.
# Submitted via: EasyCDDAExtractor 4.5.0.2
#
DISCID=8107b60c
DTITLE=loretta lynn - best of loretta lynn
DYEAR=1972
DGENRE=Country
TTITLE0=coal mine's daughter
TTITLE1=rated "x"
TTITLE2=blue eyed kentucky girl
TTITLE3=when the tingle becomes a chill
TTITLE4=the pill
TTITLE5=somebody led me away
TTITLE6=another man loved me last night 
TTITLE7=you're lookin at country
TTITLE8=i can help
TTITLE9=will you be there
TTITLE10=making plans
TTITLE11=love is no excuse
EXTD=
EXTT0=
EXTT1=
EXTT2=
EXTT3=
EXTT4=
EXTT5=
EXTT6=
EXTT7=
EXTT8=
EXTT9=
EXTT10=
EXTT11=
PLAYORDER=
